<?xml version="1.0" encoding="utf-8"?>
<!-- Generator: Adobe Illustrator 16.0.0, SVG Export Plug-In . SVG Version: 6.00 Build 0)  -->
<!DOCTYPE svg PUBLIC "-//W3C//DTD SVG 1.1//EN" "http://www.w3.org/Graphics/SVG/1.1/DTD/svg11.dtd">
<svg version="1.1" id="Capa_1" xmlns="http://www.w3.org/2000/svg" xmlns:xlink="http://www.w3.org/1999/xlink" x="0px" y="0px"
	 width="32px" height="32px" viewBox="-4 -4 32 32" enable-background="new -4 -4 32 32" xml:space="preserve">
<g>
	<polygon fill="#FFFFFF" points="7.029,21.351 10.687,19.37 6.912,17.191 	"/>
	<path fill="#FFFFFF" d="M12-4C3.164-4-4,3.164-4,12s7.164,16,16,16s16-7.164,16-16S20.836-4,12-4z M11.982,19.719
		c-0.072,0.126-0.177,0.22-0.294,0.277l-2.412,1.489l-2.459,1.511c-0.343,0.213-0.789,0.104-1.001-0.237
		c-0.081-0.126-0.113-0.271-0.108-0.411l0.08-2.878l0.082-2.883c0-0.121,0.036-0.238,0.095-0.342L11.86,6.028l6.018,3.473
		L11.982,19.719z M18.393,8.613L12.38,5.14l0.513-0.893l6.012,3.473L18.393,8.613z M19.993,5.838l-0.569,0.988l-6.018-3.473
		l0.569-0.988c0.293-0.5,0.763-0.839,1.281-0.979c0.522-0.14,1.101-0.081,1.602,0.208l2.363,1.362
		c0.504,0.294,0.839,0.762,0.979,1.281C20.341,4.761,20.286,5.338,19.993,5.838z"/>
</g>
</svg>
