<?xml version="1.0" encoding="utf-8"?>
<!-- Generator: Adobe Illustrator 16.0.0, SVG Export Plug-In . SVG Version: 6.00 Build 0)  -->
<!DOCTYPE svg PUBLIC "-//W3C//DTD SVG 1.1//EN" "http://www.w3.org/Graphics/SVG/1.1/DTD/svg11.dtd">
<svg version="1.1" id="Capa_1" xmlns="http://www.w3.org/2000/svg" xmlns:xlink="http://www.w3.org/1999/xlink" x="0px" y="0px"
	 width="270px" height="50px" viewBox="0 0 270 50" enable-background="new 0 0 270 50" xml:space="preserve">
<g>
	<path fill="#307AC3" d="M0.397,45.473h67.027L60.85,34.81c-0.031-0.044-0.061-0.086-0.093-0.128
		c0.072-0.322,0.111-0.658,0.111-1.002V4.551C60.868,2.042,58.827,0,56.317,0H11.505C8.996,0,6.955,2.042,6.955,4.551V33.68
		c0,0.344,0.039,0.68,0.111,1.002c-0.031,0.042-0.062,0.084-0.093,0.128L0.397,45.473z M10.48,4.551c0-0.565,0.46-1.025,1.025-1.025
		h44.812c0.565,0,1.025,0.46,1.025,1.025V33.68c0,0.266-0.102,0.509-0.268,0.691H10.749c-0.167-0.183-0.269-0.426-0.269-0.691V4.551
		z"/>
	<path fill="#307AC3" d="M38.058,46.463v1.955h-8.294v-1.955H0C0.144,47.715,1.107,50,3.394,50h30.518h30.518
		c2.286,0,3.25-2.285,3.394-3.537H38.058z"/>
</g>
<g>
	<polygon fill="#307AC3" points="36.948,24.569 34.426,27.091 29.556,15.445 41.254,20.262 38.641,22.876 44.012,28.248 
		42.32,29.941 	"/>
	<path fill="#307AC3" d="M29.798,18.365c-1.376-0.113-2.462-1.267-2.462-2.671c0-0.654,0.235-1.253,0.626-1.719l-0.082-0.196
		l0.189,0.078c0.49-0.519,1.182-0.846,1.95-0.846c1.479,0,2.683,1.204,2.683,2.683c0,0.023-0.003,0.045-0.004,0.069l0.879,0.361
		c0.017-0.141,0.028-0.284,0.028-0.43c0-1.98-1.606-3.586-3.586-3.586s-3.586,1.606-3.586,3.586s1.605,3.586,3.586,3.586
		c0.053,0,0.105-0.006,0.158-0.008L29.798,18.365z"/>
	<path fill="#307AC3" d="M31.183,21.677c-0.377,0.073-0.766,0.113-1.164,0.113c-3.361,0-6.096-2.735-6.096-6.096
		c0-3.362,2.735-6.097,6.096-6.097c3.362,0,6.097,2.735,6.097,6.097c0,0.484-0.059,0.955-0.166,1.407l0.847,0.349
		c0.145-0.561,0.222-1.149,0.222-1.756c0-3.866-3.134-7-7-7s-7,3.133-7,7c0,3.866,3.134,7,7,7c0.522,0,1.03-0.059,1.519-0.167
		L31.183,21.677z"/>
</g>
<g>
	<path fill="#505759" d="M81.833,2.411h7.525l-0.286,1.562h-5.699l-0.968,4.995h5.258l-0.308,1.562h-5.237l-1.276,6.711h-1.826
		L81.833,2.411z"/>
	<path fill="#505759" d="M90.919,12.554l-2.354,4.687h-1.937l7.679-14.83h2.156l2.046,14.83h-1.87l-0.594-4.687H90.919z
		 M95.892,11.102l-0.572-4.291c-0.088-0.77-0.198-1.848-0.264-2.728h-0.044c-0.396,0.88-0.77,1.804-1.21,2.706l-2.223,4.313H95.892z
		"/>
	<path fill="#505759" d="M110.191,16.757c-0.836,0.374-2.178,0.704-3.851,0.704c-3.74,0-6.007-2.354-6.007-6.139
		c0-2.794,1.122-5.457,3.168-7.151c1.518-1.298,3.411-2.002,5.589-2.002c1.65,0,2.816,0.418,3.212,0.726l-0.594,1.474
		c-0.55-0.33-1.606-0.616-2.926-0.616c-1.54,0-3.103,0.594-4.247,1.672c-1.386,1.298-2.266,3.389-2.266,5.633
		c0,2.663,1.21,4.841,4.51,4.841c1.123,0,2.354-0.22,3.168-0.638L110.191,16.757z"/>
	<path fill="#505759" d="M117.23,3.995h-4.334l0.308-1.584h10.518l-0.309,1.584h-4.356l-2.508,13.246h-1.826L117.23,3.995z"/>
	<path fill="#505759" d="M127.196,2.411l-1.672,8.779c-0.11,0.616-0.177,1.254-0.177,1.87c0,1.893,1.101,2.86,2.751,2.86
		c2.024,0,3.521-1.364,4.137-4.687l1.694-8.823h1.826l-1.694,8.867c-0.858,4.423-3.059,6.205-6.205,6.205
		c-2.442,0-4.335-1.32-4.335-4.379c0-0.638,0.066-1.364,0.198-2.046l1.65-8.647H127.196z"/>
	<path fill="#505759" d="M139.032,2.63c0.902-0.198,2.134-0.33,3.234-0.33c1.475,0,2.75,0.352,3.543,1.078
		c0.682,0.594,1.1,1.452,1.1,2.464c0,2.156-1.65,3.762-3.521,4.291l-0.021,0.044c1.034,0.352,1.54,1.452,1.649,2.992
		c0.154,2.068,0.265,3.477,0.463,4.071h-1.893c-0.088-0.308-0.242-1.87-0.353-3.586c-0.109-2.024-0.857-2.882-2.332-2.882h-1.628
		l-1.21,6.469h-1.827L139.032,2.63z M139.561,9.364h1.628c2.311,0,3.807-1.519,3.807-3.301c0-1.584-1.188-2.288-2.86-2.288
		c-0.727,0-1.21,0.066-1.54,0.154L139.561,9.364z"/>
	<path fill="#505759" d="M150.89,12.554l-2.354,4.687H146.6l7.679-14.83h2.156l2.047,14.83h-1.871l-0.594-4.687H150.89z
		 M155.862,11.102l-0.571-4.291c-0.089-0.77-0.198-1.848-0.265-2.728h-0.044c-0.396,0.88-0.771,1.804-1.21,2.706l-2.223,4.313
		H155.862z"/>
	<path fill="#505759" d="M170.163,16.757c-0.836,0.374-2.179,0.704-3.851,0.704c-3.74,0-6.007-2.354-6.007-6.139
		c0-2.794,1.122-5.457,3.169-7.151c1.518-1.298,3.41-2.002,5.588-2.002c1.65,0,2.816,0.418,3.213,0.726l-0.594,1.474
		c-0.551-0.33-1.606-0.616-2.927-0.616c-1.54,0-3.103,0.594-4.247,1.672c-1.386,1.298-2.266,3.389-2.266,5.633
		c0,2.663,1.21,4.841,4.511,4.841c1.122,0,2.354-0.22,3.168-0.638L170.163,16.757z"/>
	<path fill="#505759" d="M176.74,2.411l-2.816,14.83h-1.826l2.816-14.83H176.74z"/>
	<path fill="#505759" d="M191.019,8.241c0,2.575-0.924,5.413-2.685,7.173c-1.32,1.298-3.036,2.068-5.082,2.068
		c-3.829,0-5.633-2.883-5.633-6.029c0-2.619,1.033-5.501,2.838-7.283c1.254-1.232,3.103-2.002,4.973-2.002
		C189.412,2.168,191.019,5.073,191.019,8.241z M181.799,5.205c-1.43,1.43-2.266,4.026-2.266,6.095c0,2.42,1.078,4.643,3.982,4.643
		c1.254,0,2.464-0.55,3.389-1.474c1.386-1.408,2.2-4.07,2.2-6.139c0-2.112-0.683-4.621-3.917-4.621
		C183.867,3.709,182.701,4.281,181.799,5.205z M189.303-1l-3.015,2.597h-1.628L186.904-1H189.303z"/>
	<path fill="#505759" d="M191.94,17.241l2.816-14.83h2.003l3.41,8.405c0.639,1.672,0.99,2.86,1.299,4.137l0.044-0.022
		c0.088-1.342,0.241-2.574,0.615-4.643l1.497-7.877h1.738l-2.839,14.83h-1.805l-3.366-8.383c-0.726-1.826-1.056-2.882-1.386-4.269
		l-0.066,0.022c-0.154,1.386-0.396,2.86-0.771,4.885l-1.474,7.745H191.94z"/>
</g>
<g>
	<path fill="#379DD7" d="M90.304,36.92h-8.611v7.986h9.597v2.4H78.833V25.154h11.964v2.398h-9.104v7h8.611V36.92z"/>
	<path fill="#379DD7" d="M95.004,25.154h2.859v19.752h9.466v2.4H95.004V25.154z"/>
	<path fill="#379DD7" d="M121.988,36.92h-8.611v7.986h9.597v2.4h-12.457V25.154h11.964v2.398h-9.104v7h8.611V36.92z"/>
	<path fill="#379DD7" d="M142.169,46.584c-1.052,0.525-3.155,1.051-5.851,1.051c-6.245,0-10.945-3.943-10.945-11.207
		c0-6.936,4.7-11.636,11.57-11.636c2.761,0,4.503,0.591,5.259,0.986l-0.69,2.334c-1.085-0.525-2.63-0.92-4.47-0.92
		c-5.193,0-8.645,3.32-8.645,9.137c0,5.424,3.123,8.908,8.513,8.908c1.742,0,3.517-0.363,4.667-0.922L142.169,46.584z"/>
	<path fill="#379DD7" d="M150.879,27.586h-6.738v-2.432h16.401v2.432h-6.771v19.721h-2.893V27.586z"/>
	<path fill="#379DD7" d="M163.008,25.449c1.446-0.295,3.517-0.46,5.488-0.46c3.057,0,5.029,0.56,6.409,1.808
		c1.118,0.986,1.742,2.498,1.742,4.207c0,2.926-1.841,4.865-4.174,5.652v0.1c1.709,0.592,2.728,2.17,3.254,4.471
		c0.723,3.088,1.249,5.225,1.709,6.08h-2.958c-0.361-0.625-0.854-2.531-1.479-5.293c-0.657-3.057-1.84-4.207-4.437-4.305h-2.695
		v9.598h-2.859V25.449z M165.867,35.539h2.925c3.057,0,4.996-1.676,4.996-4.207c0-2.859-2.07-4.107-5.095-4.141
		c-1.38,0-2.366,0.131-2.826,0.264V35.539z"/>
	<path fill="#379DD7" d="M199.721,36c0,7.625-4.635,11.668-10.288,11.668c-5.85,0-9.958-4.535-9.958-11.24
		c0-7.035,4.371-11.636,10.287-11.636C195.81,24.792,199.721,29.426,199.721,36z M182.531,36.361c0,4.732,2.563,8.973,7.066,8.973
		c4.535,0,7.1-4.174,7.1-9.203c0-4.404-2.301-9.006-7.067-9.006C184.897,27.125,182.531,31.496,182.531,36.361z M194.396,20.059
		l-4.175,3.812h-2.366l3.057-3.812H194.396z"/>
	<path fill="#379DD7" d="M203.436,47.307V25.154h3.122l7.1,11.207c1.644,2.596,2.925,4.93,3.977,7.197l0.066-0.031
		c-0.264-2.959-0.329-5.654-0.329-9.105v-9.268h2.695v22.152h-2.893l-7.033-11.24c-1.545-2.467-3.024-4.996-4.142-7.396
		l-0.099,0.033c0.164,2.793,0.23,5.457,0.23,9.137v9.467H203.436z"/>
	<path fill="#379DD7" d="M227.922,25.154v22.152h-2.859V25.154H227.922z"/>
	<path fill="#379DD7" d="M248.398,46.584c-1.052,0.525-3.155,1.051-5.851,1.051c-6.245,0-10.944-3.943-10.944-11.207
		c0-6.936,4.699-11.636,11.569-11.636c2.761,0,4.503,0.591,5.259,0.986l-0.69,2.334c-1.085-0.525-2.63-0.92-4.47-0.92
		c-5.193,0-8.645,3.32-8.645,9.137c0,5.424,3.122,8.908,8.513,8.908c1.742,0,3.517-0.363,4.667-0.922L248.398,46.584z"/>
	<path fill="#379DD7" d="M255.695,40.338l-2.301,6.969h-2.958l7.527-22.152h3.451l7.56,22.152h-3.057l-2.367-6.969H255.695z
		 M262.959,38.104l-2.169-6.377c-0.493-1.445-0.821-2.76-1.15-4.043h-0.065c-0.329,1.314-0.69,2.662-1.117,4.01l-2.17,6.41H262.959z
		"/>
</g>
</svg>
