<?xml version="1.0" encoding="utf-8"?>
<!-- Generator: Adobe Illustrator 16.0.0, SVG Export Plug-In . SVG Version: 6.00 Build 0)  -->
<!DOCTYPE svg PUBLIC "-//W3C//DTD SVG 1.1//EN" "http://www.w3.org/Graphics/SVG/1.1/DTD/svg11.dtd">
<svg version="1.1" id="Capa_1" xmlns="http://www.w3.org/2000/svg" xmlns:xlink="http://www.w3.org/1999/xlink" x="0px" y="0px"
	 width="100px" height="66px" viewBox="0 0 100 66" enable-background="new 0 0 100 66" xml:space="preserve">
<g>
	<path fill="#C1194C" d="M47.007,0.726c0.271,0.153,0.317,0.392,0.317,0.687c-0.006,10.828-0.004,21.655-0.009,32.483
		c0,0.318,0.051,0.619,0.156,0.918c0.405,1.153,0.957,2.229,1.707,3.195c1.341,1.731,3.08,2.803,5.261,3.102
		c2.285,0.313,4.358-0.217,6.18-1.65c0.951-0.751,1.678-1.691,2.183-2.794c0.966-2.104,1.214-4.286,0.669-6.546
		c-0.367-1.527-1.215-2.738-2.449-3.687c-1.234-0.948-2.648-1.498-4.148-1.847c-0.262-0.061-0.541-0.048-0.812-0.049
		c-1.746-0.004-3.494-0.002-5.24-0.002c-0.084,0-0.168-0.004-0.252,0c-0.471,0.025-0.63-0.152-0.629-0.63
		c0.009-2.479,0.004-4.959,0.005-7.438c0-0.083-0.003-0.168,0.008-0.251c0.027-0.211,0.146-0.343,0.356-0.38
		c0.103-0.019,0.209-0.015,0.312-0.015c1.549-0.001,3.097,0.002,4.646-0.001c1.004-0.002,2.01-0.004,3.012-0.023
		c0.529-0.011,1.041,0.044,1.549,0.193c2.729,0.796,5.24,2.016,7.462,3.807c2.649,2.138,4.317,4.871,5.012,8.207
		c0.343,1.646,0.525,3.304,0.479,4.983c-0.076,2.79-0.603,5.48-1.793,8.021c-2.004,4.273-5.299,7.019-9.829,8.298
		c-1.159,0.327-2.343,0.518-3.541,0.639c-0.959,0.097-1.919,0.135-2.882,0.115c-4.936-0.102-9.086-1.951-12.381-5.631
		c-2.14-2.391-3.62-5.158-4.463-8.26c-0.131-0.479-0.182-0.963-0.125-1.459c0.022-0.195,0.018-0.396,0.018-0.596
		c0-10.806,0-21.613,0-32.42c0-0.115,0.012-0.231-0.002-0.345c-0.037-0.283,0.074-0.484,0.314-0.623
		C41.064,0.726,44.036,0.726,47.007,0.726z"/>
	<path fill="#C1194C" d="M4.006,65.195C3.889,65.154,3.774,65.1,3.653,65.08c-2.051-0.338-3.167-1.637-3.662-3.564
		c-0.111-0.437-0.145-0.881-0.125-1.336c0.038-0.878,0.044-1.757,0.038-2.635c-0.004-0.531,0.086-0.747,0.754-0.746
		c32.793,0.006,65.586,0.006,98.38,0.006c0.042,0,0.084,0.004,0.125-0.002c0.274-0.033,0.485,0.062,0.637,0.295
		c0,2.594,0,5.188,0,7.783c-0.084,0.104-0.168,0.21-0.251,0.314C67.702,65.195,35.854,65.195,4.006,65.195z"/>
	<path fill="#104F87" d="M-0.199,32.427c0.043-0.245,0.108-0.489,0.127-0.736c0.133-1.73,0.471-3.418,1.11-5.033
		c1.668-4.211,4.604-7.217,8.712-9.092c1.722-0.786,3.527-1.3,5.4-1.558c1.475-0.204,2.956-0.237,4.441-0.092
		c3.78,0.37,7.072,1.836,9.88,4.384c2.219,2.014,3.728,4.491,4.708,7.306c0.358,1.029,0.618,2.083,0.796,3.158
		c0.044,0.267,0.048,0.542,0.048,0.813c0.003,5.911,0.002,11.821,0.002,17.733c0,0.041,0.001,0.082,0,0.125
		c-0.01,0.424-0.144,0.557-0.572,0.557c-2.751,0.001-5.503,0.001-8.254,0c-0.416,0-0.57-0.154-0.579-0.562
		c-0.001-0.095,0-0.188,0-0.281c0-5.754-0.003-11.51,0.004-17.263c0-0.49-0.074-0.957-0.231-1.415
		c-1.049-3.051-3.18-4.864-6.332-5.472c-4.587-0.886-8.522,2.317-9.568,5.739c-0.68,2.224-0.356,4.329,0.834,6.296
		c1.227,2.028,3.01,3.36,5.278,4.043c0.196,0.06,0.411,0.083,0.617,0.084c2.019,0.006,4.038,0.004,6.057,0.004
		c0.094,0,0.189-0.006,0.282,0.004c0.216,0.022,0.364,0.169,0.391,0.383c0.01,0.082,0.009,0.167,0.01,0.25
		c0.02,2.238,0.039,4.478,0.058,6.716c0.003,0.334,0.008,0.67,0.005,1.004c-0.003,0.391-0.143,0.535-0.526,0.533
		c-1.6-0.011-3.201-0.022-4.801-0.035c-0.858-0.008-1.716-0.031-2.573-0.02c-1.143,0.018-2.241-0.18-3.319-0.559
		c-2.057-0.724-3.979-1.691-5.72-3.01c-2.973-2.25-4.833-5.219-5.705-8.826c-0.236-0.977-0.392-1.967-0.46-2.971
		c-0.015-0.215-0.08-0.427-0.122-0.64C-0.199,33.473-0.199,32.95-0.199,32.427z"/>
	<path fill="#C1194C" d="M99.801,8.635c-0.111,0.255-0.312,0.348-0.58,0.321c-0.082-0.008-0.166-0.001-0.25-0.001
		c-16.07,0-32.139,0-48.207,0c-0.146,0-0.295,0.005-0.438-0.009c-0.211-0.021-0.34-0.151-0.372-0.36
		c-0.012-0.072-0.011-0.146-0.011-0.219c-0.001-2.344,0.002-4.687-0.004-7.03c-0.001-0.279,0.072-0.49,0.334-0.611
		c15.233,0,30.466,0,45.701,0c0.012,0.016,0.021,0.042,0.035,0.047c0.705,0.229,1.317,0.63,1.906,1.06
		c0.845,0.617,1.462,1.421,1.822,2.412c0.009,0.024,0.041,0.04,0.063,0.06C99.801,5.748,99.801,7.191,99.801,8.635z"/>
	<path fill="#FFFFFF" d="M99.801,4.304c-0.021-0.02-0.056-0.035-0.064-0.06c-0.359-0.991-0.978-1.794-1.821-2.412
		c-0.589-0.43-1.201-0.832-1.906-1.06c-0.016-0.005-0.024-0.031-0.036-0.047c1.276,0,2.553,0,3.829,0
		C99.801,1.918,99.801,3.111,99.801,4.304z"/>
	<path fill="#FFFFFF" d="M99.55,65.195c0.083-0.104,0.167-0.211,0.251-0.314c0,0.104,0,0.21,0,0.314
		C99.717,65.195,99.633,65.195,99.55,65.195z"/>
	<path fill="#104F87" d="M99.396,16.32c0,2.771,0,5.488,0,8.239c-0.133,0.007-0.254,0.018-0.375,0.018
		c-1.914-0.003-3.828,0.01-5.742-0.017c-1.422-0.02-2.756,0.314-4.035,0.894c-1.312,0.595-2.408,1.463-3.219,2.668
		c-0.668,0.99-1.055,2.088-1.219,3.262c-0.178,1.283-0.17,2.567,0.131,3.835c0.511,2.16,1.769,3.756,3.703,4.823
		c1.241,0.687,2.578,1.074,3.986,1.224c0.114,0.012,0.229,0.008,0.346,0.008c1.998,0,3.995,0,5.993,0c0.134,0,0.269,0,0.423,0
		c0,2.806,0,5.572,0,8.373c-0.086,0.006-0.175,0.021-0.265,0.021c-2.218,0.001-4.437,0.041-6.653-0.011
		c-2.178-0.052-4.287-0.519-6.33-1.281c-1.758-0.657-3.379-1.552-4.818-2.763c-2.272-1.912-3.747-4.331-4.539-7.178
		c-0.366-1.314-0.562-2.656-0.646-4.018c-0.064-1.067-0.058-2.133,0.02-3.198c0.17-2.369,0.684-4.651,1.77-6.78
		c1.434-2.811,3.609-4.865,6.426-6.256c1.776-0.877,3.653-1.425,5.612-1.702c0.853-0.12,1.705-0.167,2.563-0.166
		c2.154,0.003,4.311,0.001,6.466,0.001C99.113,16.32,99.238,16.32,99.396,16.32z"/>
</g>
</svg>
